<?xml version="1.0" standalone="no"?>
<!DOCTYPE svg PUBLIC "-//W3C//DTD SVG 20010904//EN"
 "http://www.w3.org/TR/2001/REC-SVG-20010904/DTD/svg10.dtd">
<svg version="1.0" xmlns="http://www.w3.org/2000/svg"
 width="512.000000pt" height="512.000000pt" viewBox="0 0 512.000000 512.000000"
 preserveAspectRatio="xMidYMid meet">
<metadata>
Created by potrace 1.11, written by Peter Selinger 2001-2013
</metadata>
<g transform="translate(0.000000,512.000000) scale(0.100000,-0.100000)"
fill="#000000" stroke="none">
<path d="M397 5104 c-99 -24 -167 -62 -243 -138 -77 -78 -114 -144 -139 -248
-22 -95 -22 -4221 0 -4316 25 -104 62 -170 139 -248 78 -77 144 -114 248 -139
95 -22 4221 -22 4316 0 104 25 170 62 248 139 77 78 114 144 139 248 22 95 22
4221 0 4316 -25 104 -62 170 -139 248 -78 77 -144 114 -248 139 -92 22 -4231
21 -4321 -1z m3305 -765 c180 -38 265 -167 238 -360 -5 -37 -41 -166 -79 -286
-38 -120 -108 -342 -155 -493 -321 -1035 -548 -1518 -889 -1898 -200 -222
-457 -398 -702 -480 -122 -41 -322 -52 -468 -27 -228 40 -363 127 -410 265
-20 61 -47 191 -54 265 -15 168 100 424 230 512 155 104 352 102 418 -3 24
-38 24 -43 21 -240 -2 -184 -1 -203 16 -224 26 -32 53 -23 138 44 55 44 82 76
132 157 147 234 249 446 396 818 135 341 196 534 341 1091 121 466 139 515
213 609 89 111 312 229 482 255 49 7 80 6 132 -5z"/>
</g>
</svg>
